<svg width="130" height="130" viewBox="0 0 130 130" fill="none" xmlns="http://www.w3.org/2000/svg">
<rect width="130" height="130" rx="10" fill="#007BFF"/>
<path d="M13.6367 73V56.0312H17.1523V63.0625H24.5117V56.0312H28.0508V73H24.5117V65.9688H17.1523V73H13.6367ZM30.9102 73V56.0312H42.3008V58.9375H34.4258V63.0625H41.7148V65.9688H34.4258V70.0938H42.3242V73H30.9102ZM45.043 73V56.0312H51.6992C55.5664 56.0312 57.7695 58.2109 57.7695 61.5625C57.7695 63.8828 56.7031 65.5703 54.7695 66.3906L58.3789 73H54.4883L51.2539 66.9766H48.5586V73H45.043ZM48.5586 64.1172H51.043C53.1289 64.1172 54.1367 63.25 54.1367 61.5625C54.1367 59.8516 53.1289 58.9141 51.043 58.9141H48.5586V64.1172ZM60.207 73V56.0312H71.5977V58.9375H63.7227V63.0625H71.0117V65.9688H63.7227V70.0938H71.6211V73H60.207ZM76.3086 70.9375C75.207 70.9375 74.3164 70.0469 74.3398 68.9688C74.3164 67.8906 75.207 67.0234 76.3086 67.0234C77.3398 67.0234 78.2539 67.8906 78.2539 68.9688C78.2539 70.0469 77.3398 70.9375 76.3086 70.9375ZM76.3086 62.0078C75.207 62.0078 74.3164 61.1172 74.3398 60.0391C74.3164 58.9609 75.207 58.0938 76.3086 58.0938C77.3398 58.0938 78.2539 58.9609 78.2539 60.0391C78.2539 61.1172 77.3398 62.0078 76.3086 62.0078ZM84.9102 73L80.0586 56.0312H83.9023L86.7617 67.8906H86.9023L90.0195 56.0312H93.3242L96.4414 67.9141H96.582L99.4414 56.0312H103.285L98.4336 73H94.9883L91.7539 61.7969H91.6133L88.3555 73H84.9102ZM105.09 73V56.0312H116.48V58.9375H108.605V63.0625H115.895V65.9688H108.605V70.0938H116.504V73H105.09Z" fill="white"/>
</svg>
